<svg width="250" height="50" viewBox="0 0 250 50" fill="none" xmlns="http://www.w3.org/2000/svg">
<rect width="250" height="50" fill="#092742"/>
<path d="M17.25 32H12.7614V17.4545H17.4489C18.8598 17.4545 20.0672 17.7457 21.071 18.3281C22.0748 18.9058 22.8442 19.7367 23.3793 20.821C23.9143 21.9006 24.1818 23.1932 24.1818 24.6989C24.1818 26.214 23.9119 27.5185 23.3722 28.6122C22.8324 29.7012 22.0464 30.5393 21.0142 31.1264C19.982 31.7088 18.7273 32 17.25 32ZM14.5227 30.4375H17.1364C18.339 30.4375 19.3357 30.2055 20.1264 29.7415C20.9171 29.2775 21.5066 28.617 21.8949 27.7599C22.2831 26.9029 22.4773 25.8826 22.4773 24.6989C22.4773 23.5246 22.2855 22.5137 21.902 21.6662C21.5185 20.8139 20.9455 20.1605 20.1832 19.706C19.4209 19.2467 18.4716 19.017 17.3352 19.017H14.5227V30.4375ZM30.1193 32.2557C29.428 32.2557 28.8007 32.1255 28.2372 31.8651C27.6738 31.5999 27.2263 31.2188 26.8949 30.7216C26.5634 30.2197 26.3977 29.6136 26.3977 28.9034C26.3977 28.2784 26.5208 27.7718 26.767 27.3835C27.0133 26.9905 27.3423 26.6828 27.7543 26.4602C28.1662 26.2377 28.6207 26.072 29.1179 25.9631C29.6198 25.8494 30.1241 25.7595 30.6307 25.6932C31.2936 25.608 31.831 25.544 32.2429 25.5014C32.6596 25.4541 32.9626 25.3759 33.152 25.267C33.3461 25.1581 33.4432 24.9687 33.4432 24.6989V24.642C33.4432 23.9413 33.2514 23.3968 32.8679 23.0085C32.4891 22.6203 31.9138 22.4261 31.142 22.4261C30.3419 22.4261 29.7145 22.6013 29.2599 22.9517C28.8054 23.3021 28.4858 23.6761 28.3011 24.0739L26.7102 23.5057C26.9943 22.8428 27.3731 22.3267 27.8466 21.9574C28.3248 21.5833 28.8456 21.3229 29.4091 21.1761C29.9773 21.0246 30.536 20.9489 31.0852 20.9489C31.4356 20.9489 31.8381 20.9915 32.2926 21.0767C32.7519 21.1572 33.1946 21.3253 33.6207 21.581C34.0516 21.8366 34.4091 22.2225 34.6932 22.7386C34.9773 23.2547 35.1193 23.946 35.1193 24.8125V32H33.4432V30.5227H33.358C33.2443 30.7595 33.0549 31.0128 32.7898 31.2827C32.5246 31.5526 32.1719 31.7822 31.7315 31.9716C31.2912 32.161 30.7538 32.2557 30.1193 32.2557ZM30.375 30.75C31.0379 30.75 31.5966 30.6198 32.0511 30.3594C32.5104 30.099 32.8561 29.7628 33.0881 29.3509C33.3248 28.9389 33.4432 28.5057 33.4432 28.0511V26.517C33.3722 26.6023 33.2159 26.6804 32.9744 26.7514C32.7377 26.8177 32.4631 26.8769 32.1506 26.929C31.8428 26.9763 31.5421 27.0189 31.2486 27.0568C30.9598 27.09 30.7254 27.1184 30.5455 27.142C30.1098 27.1989 29.7027 27.2912 29.3239 27.419C28.9498 27.5421 28.6468 27.7292 28.4148 27.9801C28.1875 28.2263 28.0739 28.5625 28.0739 28.9886C28.0739 29.571 28.2893 30.0114 28.7202 30.3097C29.1558 30.6032 29.7074 30.75 30.375 30.75ZM46.7085 21.0909L42.6744 32H40.9698L36.9357 21.0909H38.7539L41.7653 29.7841H41.8789L44.8903 21.0909H46.7085ZM48.9208 32V21.0909H50.5969V32H48.9208ZM49.7731 19.2727C49.4464 19.2727 49.1647 19.1615 48.9279 18.9389C48.6959 18.7164 48.5799 18.4489 48.5799 18.1364C48.5799 17.8239 48.6959 17.5563 48.9279 17.3338C49.1647 17.1113 49.4464 17 49.7731 17C50.0998 17 50.3791 17.1113 50.6112 17.3338C50.8479 17.5563 50.9663 17.8239 50.9663 18.1364C50.9663 18.4489 50.8479 18.7164 50.6112 18.9389C50.3791 19.1615 50.0998 19.2727 49.7731 19.2727ZM57.7862 32.2273C56.8771 32.2273 56.0746 31.9976 55.3786 31.5384C54.6825 31.0743 54.138 30.4209 53.745 29.5781C53.352 28.7306 53.1555 27.7292 53.1555 26.5739C53.1555 25.428 53.352 24.4337 53.745 23.5909C54.138 22.7481 54.6849 22.0971 55.3857 21.6378C56.0864 21.1785 56.8961 20.9489 57.8146 20.9489C58.5249 20.9489 59.0859 21.0672 59.4979 21.304C59.9145 21.536 60.2318 21.8011 60.4496 22.0994C60.6721 22.393 60.8449 22.6345 60.968 22.8239H61.1101V17.4545H62.7862V32H61.1669V30.3239H60.968C60.8449 30.5227 60.6697 30.7737 60.4425 31.0767C60.2152 31.375 59.8909 31.6425 59.4695 31.8793C59.0481 32.1113 58.487 32.2273 57.7862 32.2273ZM58.0135 30.7216C58.6858 30.7216 59.254 30.5464 59.718 30.196C60.1821 29.8409 60.5348 29.3509 60.7763 28.7259C61.0178 28.0961 61.1385 27.3693 61.1385 26.5455C61.1385 25.7311 61.0201 25.0185 60.7834 24.4077C60.5466 23.7921 60.1963 23.3139 59.7322 22.973C59.2682 22.6274 58.6953 22.4545 58.0135 22.4545C57.3033 22.4545 56.7114 22.6368 56.2379 23.0014C55.7692 23.3613 55.4164 23.8513 55.1797 24.4716C54.9477 25.0871 54.8317 25.7784 54.8317 26.5455C54.8317 27.322 54.95 28.0275 55.1868 28.6619C55.4283 29.2917 55.7834 29.7936 56.2521 30.1676C56.7256 30.5369 57.3127 30.7216 58.0135 30.7216ZM71.9411 17.4545H74.0433L78.9865 29.5284H79.157L84.1001 17.4545H86.2024V32H84.5547V20.9489H84.4126L79.8672 32H78.2763L73.7308 20.9489H73.5888V32H71.9411V17.4545ZM92.717 32.2557C92.0257 32.2557 91.3983 32.1255 90.8349 31.8651C90.2714 31.5999 89.824 31.2188 89.4925 30.7216C89.1611 30.2197 88.9954 29.6136 88.9954 28.9034C88.9954 28.2784 89.1185 27.7718 89.3647 27.3835C89.6109 26.9905 89.94 26.6828 90.3519 26.4602C90.7638 26.2377 91.2184 26.072 91.7156 25.9631C92.2174 25.8494 92.7217 25.7595 93.2283 25.6932C93.8912 25.608 94.4286 25.544 94.8406 25.5014C95.2572 25.4541 95.5603 25.3759 95.7496 25.267C95.9438 25.1581 96.0408 24.9687 96.0408 24.6989V24.642C96.0408 23.9413 95.8491 23.3968 95.4656 23.0085C95.0868 22.6203 94.5115 22.4261 93.7397 22.4261C92.9395 22.4261 92.3121 22.6013 91.8576 22.9517C91.4031 23.3021 91.0835 23.6761 90.8988 24.0739L89.3079 23.5057C89.592 22.8428 89.9708 22.3267 90.4442 21.9574C90.9225 21.5833 91.4433 21.3229 92.0067 21.1761C92.5749 21.0246 93.1336 20.9489 93.6829 20.9489C94.0333 20.9489 94.4357 20.9915 94.8903 21.0767C95.3496 21.1572 95.7923 21.3253 96.2184 21.581C96.6493 21.8366 97.0067 22.2225 97.2908 22.7386C97.5749 23.2547 97.717 23.946 97.717 24.8125V32H96.0408V30.5227H95.9556C95.842 30.7595 95.6526 31.0128 95.3874 31.2827C95.1223 31.5526 94.7695 31.7822 94.3292 31.9716C93.8888 32.161 93.3514 32.2557 92.717 32.2557ZM92.9727 30.75C93.6355 30.75 94.1942 30.6198 94.6488 30.3594C95.1081 30.099 95.4537 29.7628 95.6857 29.3509C95.9225 28.9389 96.0408 28.5057 96.0408 28.0511V26.517C95.9698 26.6023 95.8136 26.6804 95.5721 26.7514C95.3353 26.8177 95.0607 26.8769 94.7482 26.929C94.4405 26.9763 94.1398 27.0189 93.8462 27.0568C93.5574 27.09 93.323 27.1184 93.1431 27.142C92.7075 27.1989 92.3003 27.2912 91.9215 27.419C91.5475 27.5421 91.2444 27.7292 91.0124 27.9801C90.7852 28.2263 90.6715 28.5625 90.6715 28.9886C90.6715 29.571 90.887 30.0114 91.3178 30.3097C91.7534 30.6032 92.305 30.75 92.9727 30.75ZM102.452 17.4545V32H100.776V17.4545H102.452ZM109.642 32.2273C108.733 32.2273 107.93 31.9976 107.234 31.5384C106.538 31.0743 105.993 30.4209 105.6 29.5781C105.208 28.7306 105.011 27.7292 105.011 26.5739C105.011 25.428 105.208 24.4337 105.6 23.5909C105.993 22.7481 106.54 22.0971 107.241 21.6378C107.942 21.1785 108.752 20.9489 109.67 20.9489C110.38 20.9489 110.941 21.0672 111.353 21.304C111.77 21.536 112.087 21.8011 112.305 22.0994C112.528 22.393 112.7 22.6345 112.824 22.8239H112.966V17.4545H114.642V32H113.022V30.3239H112.824C112.7 30.5227 112.525 30.7737 112.298 31.0767C112.071 31.375 111.746 31.6425 111.325 31.8793C110.904 32.1113 110.342 32.2273 109.642 32.2273ZM109.869 30.7216C110.541 30.7216 111.109 30.5464 111.574 30.196C112.038 29.8409 112.39 29.3509 112.632 28.7259C112.873 28.0961 112.994 27.3693 112.994 26.5455C112.994 25.7311 112.876 25.0185 112.639 24.4077C112.402 23.7921 112.052 23.3139 111.588 22.973C111.124 22.6274 110.551 22.4545 109.869 22.4545C109.159 22.4545 108.567 22.6368 108.093 23.0014C107.625 23.3613 107.272 23.8513 107.035 24.4716C106.803 25.0871 106.687 25.7784 106.687 26.5455C106.687 27.322 106.806 28.0275 107.042 28.6619C107.284 29.2917 107.639 29.7936 108.108 30.1676C108.581 30.5369 109.168 30.7216 109.869 30.7216ZM122.376 32.2273C121.391 32.2273 120.527 31.9929 119.784 31.5241C119.045 31.0554 118.467 30.3996 118.051 29.5568C117.639 28.714 117.433 27.7292 117.433 26.6023C117.433 25.4659 117.639 24.474 118.051 23.6264C118.467 22.7789 119.045 22.1207 119.784 21.652C120.527 21.1832 121.391 20.9489 122.376 20.9489C123.361 20.9489 124.223 21.1832 124.961 21.652C125.705 22.1207 126.282 22.7789 126.694 23.6264C127.111 24.474 127.319 25.4659 127.319 26.6023C127.319 27.7292 127.111 28.714 126.694 29.5568C126.282 30.3996 125.705 31.0554 124.961 31.5241C124.223 31.9929 123.361 32.2273 122.376 32.2273ZM122.376 30.7216C123.124 30.7216 123.74 30.5298 124.223 30.1463C124.706 29.7628 125.063 29.2585 125.295 28.6335C125.527 28.0085 125.643 27.3314 125.643 26.6023C125.643 25.8731 125.527 25.1937 125.295 24.5639C125.063 23.9342 124.706 23.4252 124.223 23.0369C123.74 22.6487 123.124 22.4545 122.376 22.4545C121.628 22.4545 121.012 22.6487 120.529 23.0369C120.047 23.4252 119.689 23.9342 119.457 24.5639C119.225 25.1937 119.109 25.8731 119.109 26.6023C119.109 27.3314 119.225 28.0085 119.457 28.6335C119.689 29.2585 120.047 29.7628 120.529 30.1463C121.012 30.5298 121.628 30.7216 122.376 30.7216ZM131.554 25.4375V32H129.878V21.0909H131.497V22.7955H131.639C131.895 22.2415 132.283 21.7964 132.804 21.4602C133.325 21.1193 133.997 20.9489 134.821 20.9489C135.56 20.9489 136.206 21.1004 136.76 21.4034C137.314 21.7017 137.745 22.1562 138.053 22.767C138.36 23.3731 138.514 24.1402 138.514 25.0682V32H136.838V25.1818C136.838 24.3248 136.616 23.6572 136.17 23.179C135.725 22.696 135.115 22.4545 134.338 22.4545C133.803 22.4545 133.325 22.5705 132.903 22.8026C132.487 23.0346 132.158 23.3731 131.916 23.8182C131.675 24.2633 131.554 24.803 131.554 25.4375ZM144.787 32.2557C144.096 32.2557 143.469 32.1255 142.905 31.8651C142.342 31.5999 141.894 31.2188 141.563 30.7216C141.231 30.2197 141.066 29.6136 141.066 28.9034C141.066 28.2784 141.189 27.7718 141.435 27.3835C141.681 26.9905 142.01 26.6828 142.422 26.4602C142.834 26.2377 143.289 26.072 143.786 25.9631C144.288 25.8494 144.792 25.7595 145.299 25.6932C145.962 25.608 146.499 25.544 146.911 25.5014C147.328 25.4541 147.631 25.3759 147.82 25.267C148.014 25.1581 148.111 24.9687 148.111 24.6989V24.642C148.111 23.9413 147.919 23.3968 147.536 23.0085C147.157 22.6203 146.582 22.4261 145.81 22.4261C145.01 22.4261 144.382 22.6013 143.928 22.9517C143.473 23.3021 143.154 23.6761 142.969 24.0739L141.378 23.5057C141.662 22.8428 142.041 22.3267 142.515 21.9574C142.993 21.5833 143.514 21.3229 144.077 21.1761C144.645 21.0246 145.204 20.9489 145.753 20.9489C146.104 20.9489 146.506 20.9915 146.961 21.0767C147.42 21.1572 147.863 21.3253 148.289 21.581C148.72 21.8366 149.077 22.2225 149.361 22.7386C149.645 23.2547 149.787 23.946 149.787 24.8125V32H148.111V30.5227H148.026C147.912 30.7595 147.723 31.0128 147.458 31.2827C147.193 31.5526 146.84 31.7822 146.4 31.9716C145.959 32.161 145.422 32.2557 144.787 32.2557ZM145.043 30.75C145.706 30.75 146.265 30.6198 146.719 30.3594C147.178 30.099 147.524 29.7628 147.756 29.3509C147.993 28.9389 148.111 28.5057 148.111 28.0511V26.517C148.04 26.6023 147.884 26.6804 147.642 26.7514C147.406 26.8177 147.131 26.8769 146.819 26.929C146.511 26.9763 146.21 27.0189 145.917 27.0568C145.628 27.09 145.393 27.1184 145.213 27.142C144.778 27.1989 144.371 27.2912 143.992 27.419C143.618 27.5421 143.315 27.7292 143.083 27.9801C142.855 28.2263 142.742 28.5625 142.742 28.9886C142.742 29.571 142.957 30.0114 143.388 30.3097C143.824 30.6032 144.375 30.75 145.043 30.75ZM156.966 32.2273C156.057 32.2273 155.254 31.9976 154.558 31.5384C153.862 31.0743 153.318 30.4209 152.925 29.5781C152.532 28.7306 152.335 27.7292 152.335 26.5739C152.335 25.428 152.532 24.4337 152.925 23.5909C153.318 22.7481 153.865 22.0971 154.565 21.6378C155.266 21.1785 156.076 20.9489 156.994 20.9489C157.705 20.9489 158.266 21.0672 158.678 21.304C159.094 21.536 159.411 21.8011 159.629 22.0994C159.852 22.393 160.025 22.6345 160.148 22.8239H160.29V17.4545H161.966V32H160.347V30.3239H160.148C160.025 30.5227 159.849 30.7737 159.622 31.0767C159.395 31.375 159.071 31.6425 158.649 31.8793C158.228 32.1113 157.667 32.2273 156.966 32.2273ZM157.193 30.7216C157.866 30.7216 158.434 30.5464 158.898 30.196C159.362 29.8409 159.714 29.3509 159.956 28.7259C160.197 28.0961 160.318 27.3693 160.318 26.5455C160.318 25.7311 160.2 25.0185 159.963 24.4077C159.726 23.7921 159.376 23.3139 158.912 22.973C158.448 22.6274 157.875 22.4545 157.193 22.4545C156.483 22.4545 155.891 22.6368 155.418 23.0014C154.949 23.3613 154.596 23.8513 154.359 24.4716C154.127 25.0871 154.011 25.7784 154.011 26.5455C154.011 27.322 154.13 28.0275 154.366 28.6619C154.608 29.2917 154.963 29.7936 155.432 30.1676C155.905 30.5369 156.492 30.7216 157.193 30.7216ZM169.7 32.2273C168.715 32.2273 167.851 31.9929 167.108 31.5241C166.369 31.0554 165.792 30.3996 165.375 29.5568C164.963 28.714 164.757 27.7292 164.757 26.6023C164.757 25.4659 164.963 24.474 165.375 23.6264C165.792 22.7789 166.369 22.1207 167.108 21.652C167.851 21.1832 168.715 20.9489 169.7 20.9489C170.685 20.9489 171.547 21.1832 172.286 21.652C173.029 22.1207 173.607 22.7789 174.018 23.6264C174.435 24.474 174.643 25.4659 174.643 26.6023C174.643 27.7292 174.435 28.714 174.018 29.5568C173.607 30.3996 173.029 31.0554 172.286 31.5241C171.547 31.9929 170.685 32.2273 169.7 32.2273ZM169.7 30.7216C170.448 30.7216 171.064 30.5298 171.547 30.1463C172.03 29.7628 172.387 29.2585 172.619 28.6335C172.851 28.0085 172.967 27.3314 172.967 26.6023C172.967 25.8731 172.851 25.1937 172.619 24.5639C172.387 23.9342 172.03 23.4252 171.547 23.0369C171.064 22.6487 170.448 22.4545 169.7 22.4545C168.952 22.4545 168.337 22.6487 167.854 23.0369C167.371 23.4252 167.013 23.9342 166.781 24.5639C166.549 25.1937 166.433 25.8731 166.433 26.6023C166.433 27.3314 166.549 28.0085 166.781 28.6335C167.013 29.2585 167.371 29.7628 167.854 30.1463C168.337 30.5298 168.952 30.7216 169.7 30.7216ZM183.054 32V17.4545H184.816V30.4375H191.577V32H183.054ZM198.509 32.2273C197.524 32.2273 196.66 31.9929 195.917 31.5241C195.178 31.0554 194.6 30.3996 194.184 29.5568C193.772 28.714 193.566 27.7292 193.566 26.6023C193.566 25.4659 193.772 24.474 194.184 23.6264C194.6 22.7789 195.178 22.1207 195.917 21.652C196.66 21.1832 197.524 20.9489 198.509 20.9489C199.494 20.9489 200.355 21.1832 201.094 21.652C201.837 22.1207 202.415 22.7789 202.827 23.6264C203.244 24.474 203.452 25.4659 203.452 26.6023C203.452 27.7292 203.244 28.714 202.827 29.5568C202.415 30.3996 201.837 31.0554 201.094 31.5241C200.355 31.9929 199.494 32.2273 198.509 32.2273ZM198.509 30.7216C199.257 30.7216 199.873 30.5298 200.355 30.1463C200.838 29.7628 201.196 29.2585 201.428 28.6335C201.66 28.0085 201.776 27.3314 201.776 26.6023C201.776 25.8731 201.66 25.1937 201.428 24.5639C201.196 23.9342 200.838 23.4252 200.355 23.0369C199.873 22.6487 199.257 22.4545 198.509 22.4545C197.761 22.4545 197.145 22.6487 196.662 23.0369C196.179 23.4252 195.822 23.9342 195.59 24.5639C195.358 25.1937 195.242 25.8731 195.242 26.6023C195.242 27.3314 195.358 28.0085 195.59 28.6335C195.822 29.2585 196.179 29.7628 196.662 30.1463C197.145 30.5298 197.761 30.7216 198.509 30.7216ZM197.742 19.6136L199.475 16.3182H201.435L199.219 19.6136H197.742ZM206.011 36.0909V21.0909H207.63V22.8239H207.829C207.952 22.6345 208.122 22.393 208.34 22.0994C208.563 21.8011 208.88 21.536 209.292 21.304C209.709 21.0672 210.272 20.9489 210.982 20.9489C211.901 20.9489 212.71 21.1785 213.411 21.6378C214.112 22.0971 214.659 22.7481 215.052 23.5909C215.445 24.4337 215.641 25.428 215.641 26.5739C215.641 27.7292 215.445 28.7306 215.052 29.5781C214.659 30.4209 214.114 31.0743 213.418 31.5384C212.722 31.9976 211.92 32.2273 211.011 32.2273C210.31 32.2273 209.749 32.1113 209.327 31.8793C208.906 31.6425 208.582 31.375 208.354 31.0767C208.127 30.7737 207.952 30.5227 207.829 30.3239H207.687V36.0909H206.011ZM207.658 26.5455C207.658 27.3693 207.779 28.0961 208.021 28.7259C208.262 29.3509 208.615 29.8409 209.079 30.196C209.543 30.5464 210.111 30.7216 210.783 30.7216C211.484 30.7216 212.069 30.5369 212.538 30.1676C213.011 29.7936 213.366 29.2917 213.603 28.6619C213.844 28.0275 213.965 27.322 213.965 26.5455C213.965 25.7784 213.847 25.0871 213.61 24.4716C213.378 23.8513 213.025 23.3613 212.552 23.0014C212.083 22.6368 211.494 22.4545 210.783 22.4545C210.102 22.4545 209.529 22.6274 209.065 22.973C208.601 23.3139 208.25 23.7921 208.013 24.4077C207.777 25.0185 207.658 25.7311 207.658 26.5455ZM222.772 32.2273C221.721 32.2273 220.814 31.9953 220.052 31.5312C219.294 31.0625 218.71 30.4091 218.298 29.571C217.89 28.7282 217.687 27.7481 217.687 26.6307C217.687 25.5133 217.89 24.5284 218.298 23.6761C218.71 22.8191 219.282 22.1515 220.016 21.6733C220.755 21.1903 221.617 20.9489 222.602 20.9489C223.17 20.9489 223.731 21.0436 224.285 21.233C224.839 21.4223 225.343 21.7301 225.798 22.1562C226.252 22.5777 226.614 23.1364 226.884 23.8324C227.154 24.5284 227.289 25.3854 227.289 26.4034V27.1136H218.88V25.6648H225.585C225.585 25.0492 225.461 24.5 225.215 24.017C224.974 23.5341 224.628 23.1529 224.178 22.8736C223.733 22.5942 223.208 22.4545 222.602 22.4545C221.934 22.4545 221.356 22.6203 220.869 22.9517C220.386 23.2784 220.014 23.7045 219.754 24.2301C219.493 24.7557 219.363 25.3191 219.363 25.9205V26.8864C219.363 27.7102 219.505 28.4086 219.789 28.9815C220.078 29.5497 220.478 29.983 220.989 30.2812C221.501 30.5748 222.095 30.7216 222.772 30.7216C223.212 30.7216 223.61 30.66 223.965 30.5369C224.325 30.4091 224.635 30.2197 224.896 29.9688C225.156 29.7131 225.357 29.3958 225.499 29.017L227.119 29.4716C226.948 30.0208 226.662 30.5038 226.259 30.9205C225.857 31.3324 225.36 31.6544 224.768 31.8864C224.176 32.1136 223.511 32.2273 222.772 32.2273ZM229.526 32V30.7216L235.719 22.767V22.6534H229.725V21.0909H237.879V22.4261L231.856 30.3239V30.4375H238.077V32H229.526Z" fill="white"/>
</svg>
