<svg width="51" height="11" viewBox="0 0 51 11" fill="none" xmlns="http://www.w3.org/2000/svg">
<rect width="51" height="11" fill="#092742"/>
<path d="M4.225 7H3.34523V4.14909H4.26398C4.54053 4.14909 4.77718 4.20616 4.97392 4.32031C5.17066 4.43353 5.32147 4.5964 5.42634 4.80892C5.5312 5.02051 5.58364 5.27386 5.58364 5.56898C5.58364 5.86595 5.53074 6.12162 5.42494 6.33599C5.31915 6.54944 5.16509 6.7137 4.96278 6.82878C4.76047 6.94293 4.51455 7 4.225 7ZM3.69045 6.69375H4.20273C4.43845 6.69375 4.6338 6.64828 4.78878 6.55733C4.94376 6.46638 5.0593 6.33692 5.1354 6.16895C5.2115 6.00098 5.24955 5.80098 5.24955 5.56898C5.24955 5.33883 5.21196 5.14069 5.13679 4.97457C5.06162 4.80753 4.94933 4.67946 4.79991 4.59037C4.6505 4.50035 4.46443 4.45534 4.2417 4.45534H3.69045V6.69375ZM6.74739 7.05011C6.61189 7.05011 6.48893 7.02459 6.37849 6.97355C6.26806 6.92158 6.18036 6.84688 6.1154 6.74943C6.05044 6.65106 6.01795 6.53227 6.01795 6.39307C6.01795 6.27057 6.04208 6.17127 6.09034 6.09517C6.1386 6.01814 6.2031 5.95782 6.28384 5.9142C6.36457 5.87059 6.45366 5.83811 6.55111 5.81676C6.64948 5.79449 6.74831 5.77686 6.84761 5.76386C6.97754 5.74716 7.08287 5.73463 7.16361 5.72628C7.24527 5.717 7.30467 5.70169 7.34179 5.68034C7.37984 5.659 7.39886 5.62188 7.39886 5.56898V5.55784C7.39886 5.42049 7.36128 5.31377 7.28611 5.23767C7.21187 5.16157 7.09911 5.12352 6.94784 5.12352C6.791 5.12352 6.66804 5.15786 6.57895 5.22653C6.48986 5.29521 6.42722 5.36852 6.39102 5.44648L6.0792 5.33511C6.13489 5.20519 6.20913 5.10403 6.30193 5.03165C6.39566 4.95833 6.49775 4.90729 6.60818 4.87852C6.71955 4.84883 6.82905 4.83398 6.9367 4.83398C7.00538 4.83398 7.08426 4.84233 7.17335 4.85903C7.26337 4.87481 7.35014 4.90776 7.43366 4.95787C7.51812 5.00798 7.58818 5.08362 7.64386 5.18477C7.69955 5.28593 7.72739 5.42142 7.72739 5.59125V7H7.39886V6.71045H7.38216C7.35989 6.75686 7.32276 6.80651 7.2708 6.8594C7.21883 6.9123 7.14969 6.95731 7.06338 6.99443C6.97707 7.03155 6.87174 7.05011 6.74739 7.05011ZM6.7975 6.755C6.92742 6.755 7.03693 6.72948 7.12602 6.67844C7.21604 6.6274 7.28379 6.56151 7.32926 6.48077C7.37566 6.40003 7.39886 6.31511 7.39886 6.22602V5.92534C7.38494 5.94205 7.35432 5.95736 7.30699 5.97128C7.26059 5.98427 7.20676 5.99587 7.14551 6.00608C7.08519 6.01536 7.02626 6.02371 6.96872 6.03114C6.91211 6.03763 6.86617 6.0432 6.83091 6.04784C6.74553 6.05898 6.66572 6.07707 6.59148 6.10213C6.51816 6.12626 6.45877 6.16292 6.4133 6.2121C6.36875 6.26036 6.34648 6.32625 6.34648 6.40977C6.34648 6.52392 6.3887 6.61023 6.47315 6.66869C6.55853 6.72623 6.66665 6.755 6.7975 6.755ZM9.99886 4.86182L9.20817 7H8.87408L8.0834 4.86182H8.43977L9.02999 6.56568H9.05227L9.64249 4.86182H9.99886ZM10.4325 7V4.86182H10.761V7H10.4325ZM10.5995 4.50545C10.5355 4.50545 10.4803 4.48365 10.4339 4.44003C10.3884 4.39641 10.3657 4.34398 10.3657 4.28273C10.3657 4.22148 10.3884 4.16904 10.4339 4.12543C10.4803 4.08181 10.5355 4.06 10.5995 4.06C10.6636 4.06 10.7183 4.08181 10.7638 4.12543C10.8102 4.16904 10.8334 4.22148 10.8334 4.28273C10.8334 4.34398 10.8102 4.39641 10.7638 4.44003C10.7183 4.48365 10.6636 4.50545 10.5995 4.50545ZM12.1701 7.04455C11.9919 7.04455 11.8346 6.99954 11.6982 6.90952C11.5618 6.81857 11.4551 6.6905 11.378 6.52531C11.301 6.3592 11.2625 6.16292 11.2625 5.93648C11.2625 5.71189 11.301 5.51701 11.378 5.35182C11.4551 5.18663 11.5622 5.05902 11.6996 4.96901C11.8369 4.87899 11.9956 4.83398 12.1757 4.83398C12.3149 4.83398 12.4248 4.85718 12.5056 4.90358C12.5872 4.94905 12.6494 5.00102 12.6921 5.05949C12.7357 5.11703 12.7696 5.16436 12.7937 5.20148H12.8216V4.14909H13.1501V7H12.8327V6.67148H12.7937C12.7696 6.71045 12.7353 6.75964 12.6907 6.81903C12.6462 6.8775 12.5826 6.92993 12.5 6.97634C12.4174 7.02181 12.3074 7.04455 12.1701 7.04455ZM12.2146 6.74943C12.3464 6.74943 12.4578 6.71509 12.5487 6.64642C12.6397 6.57682 12.7088 6.48077 12.7562 6.35827C12.8035 6.23484 12.8271 6.09239 12.8271 5.93091C12.8271 5.77129 12.8039 5.63162 12.7575 5.5119C12.7111 5.39126 12.6425 5.29753 12.5515 5.23071C12.4606 5.16296 12.3483 5.12909 12.2146 5.12909C12.0754 5.12909 11.9594 5.16482 11.8666 5.23628C11.7748 5.30681 11.7056 5.40286 11.6592 5.52443C11.6137 5.64508 11.591 5.78057 11.591 5.93091C11.591 6.08311 11.6142 6.22138 11.6606 6.34574C11.7079 6.46917 11.7775 6.56754 11.8694 6.64085C11.9622 6.71324 12.0773 6.74943 12.2146 6.74943ZM14.9444 4.14909H15.3565L16.3254 6.51557H16.3588L17.3276 4.14909H17.7397V7H17.4167V4.83398H17.3889L16.498 7H16.1862L15.2952 4.83398H15.2674V7H14.9444V4.14909ZM19.0165 7.05011C18.881 7.05011 18.7581 7.02459 18.6476 6.97355C18.5372 6.92158 18.4495 6.84688 18.3845 6.74943C18.3196 6.65106 18.2871 6.53227 18.2871 6.39307C18.2871 6.27057 18.3112 6.17127 18.3595 6.09517C18.4077 6.01814 18.4722 5.95782 18.553 5.9142C18.6337 5.87059 18.7228 5.83811 18.8202 5.81676C18.9186 5.79449 19.0175 5.77686 19.1168 5.76386C19.2467 5.74716 19.352 5.73463 19.4327 5.72628C19.5144 5.717 19.5738 5.70169 19.6109 5.68034C19.649 5.659 19.668 5.62188 19.668 5.56898V5.55784C19.668 5.42049 19.6304 5.31377 19.5552 5.23767C19.481 5.16157 19.3683 5.12352 19.217 5.12352C19.0601 5.12352 18.9372 5.15786 18.8481 5.22653C18.759 5.29521 18.6964 5.36852 18.6602 5.44648L18.3483 5.33511C18.404 5.20519 18.4783 5.10403 18.5711 5.03165C18.6648 4.95833 18.7669 4.90729 18.8773 4.87852C18.9887 4.84883 19.0982 4.83398 19.2058 4.83398C19.2745 4.83398 19.3534 4.84233 19.4425 4.85903C19.5325 4.87481 19.6193 4.90776 19.7028 4.95787C19.7873 5.00798 19.8573 5.08362 19.913 5.18477C19.9687 5.28593 19.9965 5.42142 19.9965 5.59125V7H19.668V6.71045H19.6513C19.629 6.75686 19.5919 6.80651 19.5399 6.8594C19.488 6.9123 19.4188 6.95731 19.3325 6.99443C19.2462 7.03155 19.1409 7.05011 19.0165 7.05011ZM19.0666 6.755C19.1966 6.755 19.3061 6.72948 19.3952 6.67844C19.4852 6.6274 19.5529 6.56151 19.5984 6.48077C19.6448 6.40003 19.668 6.31511 19.668 6.22602V5.92534C19.6541 5.94205 19.6235 5.95736 19.5761 5.97128C19.5297 5.98427 19.4759 5.99587 19.4147 6.00608C19.3543 6.01536 19.2954 6.02371 19.2379 6.03114C19.1813 6.03763 19.1353 6.0432 19.1 6.04784C19.0147 6.05898 18.9349 6.07707 18.8606 6.10213C18.7873 6.12626 18.7279 6.16292 18.6824 6.2121C18.6379 6.26036 18.6156 6.32625 18.6156 6.40977C18.6156 6.52392 18.6578 6.61023 18.7423 6.66869C18.8277 6.72623 18.9358 6.755 19.0666 6.755ZM20.9247 4.14909V7H20.5961V4.14909H20.9247ZM22.3338 7.04455C22.1556 7.04455 21.9983 6.99954 21.8619 6.90952C21.7254 6.81857 21.6187 6.6905 21.5417 6.52531C21.4647 6.3592 21.4262 6.16292 21.4262 5.93648C21.4262 5.71189 21.4647 5.51701 21.5417 5.35182C21.6187 5.18663 21.7259 5.05902 21.8633 4.96901C22.0006 4.87899 22.1593 4.83398 22.3393 4.83398C22.4785 4.83398 22.5885 4.85718 22.6693 4.90358C22.7509 4.94905 22.8131 5.00102 22.8558 5.05949C22.8994 5.11703 22.9333 5.16436 22.9574 5.20148H22.9852V4.14909H23.3138V7H22.9964V6.67148H22.9574C22.9333 6.71045 22.8989 6.75964 22.8544 6.81903C22.8098 6.8775 22.7463 6.92993 22.6637 6.97634C22.5811 7.02181 22.4711 7.04455 22.3338 7.04455ZM22.3783 6.74943C22.5101 6.74943 22.6215 6.71509 22.7124 6.64642C22.8034 6.57682 22.8725 6.48077 22.9198 6.35827C22.9672 6.23484 22.9908 6.09239 22.9908 5.93091C22.9908 5.77129 22.9676 5.63162 22.9212 5.5119C22.8748 5.39126 22.8061 5.29753 22.7152 5.23071C22.6242 5.16296 22.512 5.12909 22.3783 5.12909C22.2391 5.12909 22.1231 5.16482 22.0303 5.23628C21.9384 5.30681 21.8693 5.40286 21.8229 5.52443C21.7774 5.64508 21.7547 5.78057 21.7547 5.93091C21.7547 6.08311 21.7779 6.22138 21.8243 6.34574C21.8716 6.46917 21.9412 6.56754 22.0331 6.64085C22.1259 6.71324 22.241 6.74943 22.3783 6.74943ZM24.8297 7.04455C24.6367 7.04455 24.4673 6.99861 24.3216 6.90673C24.1768 6.81486 24.0636 6.68633 23.982 6.52114C23.9012 6.35595 23.8608 6.16292 23.8608 5.94205C23.8608 5.71932 23.9012 5.5249 23.982 5.35878C24.0636 5.19266 24.1768 5.06366 24.3216 4.97179C24.4673 4.87991 24.6367 4.83398 24.8297 4.83398C25.0227 4.83398 25.1916 4.87991 25.3364 4.97179C25.4821 5.06366 25.5953 5.19266 25.6761 5.35878C25.7577 5.5249 25.7986 5.71932 25.7986 5.94205C25.7986 6.16292 25.7577 6.35595 25.6761 6.52114C25.5953 6.68633 25.4821 6.81486 25.3364 6.90673C25.1916 6.99861 25.0227 7.04455 24.8297 7.04455ZM24.8297 6.74943C24.9763 6.74943 25.097 6.71185 25.1916 6.63668C25.2863 6.56151 25.3564 6.46267 25.4018 6.34017C25.4473 6.21767 25.47 6.08496 25.47 5.94205C25.47 5.79913 25.4473 5.66596 25.4018 5.54253C25.3564 5.4191 25.2863 5.31934 25.1916 5.24324C25.097 5.16714 24.9763 5.12909 24.8297 5.12909C24.6831 5.12909 24.5624 5.16714 24.4678 5.24324C24.3731 5.31934 24.303 5.4191 24.2576 5.54253C24.2121 5.66596 24.1894 5.79913 24.1894 5.94205C24.1894 6.08496 24.2121 6.21767 24.2576 6.34017C24.303 6.46267 24.3731 6.56151 24.4678 6.63668C24.5624 6.71185 24.6831 6.74943 24.8297 6.74943ZM26.6286 5.71375V7H26.3001V4.86182H26.6174V5.19591H26.6453C26.6954 5.08733 26.7715 5.00009 26.8736 4.9342C26.9757 4.86739 27.1074 4.83398 27.2689 4.83398C27.4137 4.83398 27.5404 4.86367 27.6489 4.92307C27.7575 4.98153 27.842 5.07063 27.9023 5.19034C27.9626 5.30913 27.9928 5.45947 27.9928 5.64136V7H27.6643V5.66364C27.6643 5.49566 27.6206 5.36481 27.5334 5.27108C27.4462 5.17642 27.3265 5.12909 27.1743 5.12909C27.0694 5.12909 26.9757 5.15183 26.8931 5.1973C26.8114 5.24277 26.7469 5.30913 26.6996 5.39636C26.6522 5.4836 26.6286 5.58939 26.6286 5.71375ZM29.2223 7.05011C29.0868 7.05011 28.9639 7.02459 28.8534 6.97355C28.743 6.92158 28.6553 6.84688 28.5903 6.74943C28.5254 6.65106 28.4929 6.53227 28.4929 6.39307C28.4929 6.27057 28.517 6.17127 28.5653 6.09517C28.6135 6.01814 28.678 5.95782 28.7588 5.9142C28.8395 5.87059 28.9286 5.83811 29.026 5.81676C29.1244 5.79449 29.2232 5.77686 29.3225 5.76386C29.4525 5.74716 29.5578 5.73463 29.6385 5.72628C29.7202 5.717 29.7796 5.70169 29.8167 5.68034C29.8548 5.659 29.8738 5.62188 29.8738 5.56898V5.55784C29.8738 5.42049 29.8362 5.31377 29.761 5.23767C29.6868 5.16157 29.574 5.12352 29.4228 5.12352C29.2659 5.12352 29.143 5.15786 29.0539 5.22653C28.9648 5.29521 28.9021 5.36852 28.8659 5.44648L28.5541 5.33511C28.6098 5.20519 28.6841 5.10403 28.7769 5.03165C28.8706 4.95833 28.9727 4.90729 29.0831 4.87852C29.1945 4.84883 29.304 4.83398 29.4116 4.83398C29.4803 4.83398 29.5592 4.84233 29.6483 4.85903C29.7383 4.87481 29.8251 4.90776 29.9086 4.95787C29.993 5.00798 30.0631 5.08362 30.1188 5.18477C30.1745 5.28593 30.2023 5.42142 30.2023 5.59125V7H29.8738V6.71045H29.8571C29.8348 6.75686 29.7977 6.80651 29.7457 6.8594C29.6937 6.9123 29.6246 6.95731 29.5383 6.99443C29.452 7.03155 29.3467 7.05011 29.2223 7.05011ZM29.2724 6.755C29.4023 6.755 29.5119 6.72948 29.6009 6.67844C29.691 6.6274 29.7587 6.56151 29.8042 6.48077C29.8506 6.40003 29.8738 6.31511 29.8738 6.22602V5.92534C29.8599 5.94205 29.8292 5.95736 29.7819 5.97128C29.7355 5.98427 29.6817 5.99587 29.6204 6.00608C29.5601 6.01536 29.5012 6.02371 29.4436 6.03114C29.387 6.03763 29.3411 6.0432 29.3058 6.04784C29.2205 6.05898 29.1406 6.07707 29.0664 6.10213C28.9931 6.12626 28.9337 6.16292 28.8882 6.2121C28.8437 6.26036 28.8214 6.32625 28.8214 6.40977C28.8214 6.52392 28.8636 6.61023 28.9481 6.66869C29.0335 6.72623 29.1416 6.755 29.2724 6.755ZM31.6093 7.04455C31.4311 7.04455 31.2738 6.99954 31.1374 6.90952C31.001 6.81857 30.8943 6.6905 30.8172 6.52531C30.7402 6.3592 30.7017 6.16292 30.7017 5.93648C30.7017 5.71189 30.7402 5.51701 30.8172 5.35182C30.8943 5.18663 31.0015 5.05902 31.1388 4.96901C31.2762 4.87899 31.4348 4.83398 31.6149 4.83398C31.7541 4.83398 31.8641 4.85718 31.9448 4.90358C32.0265 4.94905 32.0886 5.00102 32.1313 5.05949C32.175 5.11703 32.2088 5.16436 32.233 5.20148H32.2608V4.14909H32.5893V7H32.2719V6.67148H32.233C32.2088 6.71045 32.1745 6.75964 32.1299 6.81903C32.0854 6.8775 32.0218 6.92993 31.9392 6.97634C31.8566 7.02181 31.7467 7.04455 31.6093 7.04455ZM31.6539 6.74943C31.7856 6.74943 31.897 6.71509 31.988 6.64642C32.0789 6.57682 32.148 6.48077 32.1954 6.35827C32.2427 6.23484 32.2664 6.09239 32.2664 5.93091C32.2664 5.77129 32.2432 5.63162 32.1968 5.5119C32.1504 5.39126 32.0817 5.29753 31.9907 5.23071C31.8998 5.16296 31.7875 5.12909 31.6539 5.12909C31.5147 5.12909 31.3987 5.16482 31.3059 5.23628C31.214 5.30681 31.1448 5.40286 31.0984 5.52443C31.053 5.64508 31.0302 5.78057 31.0302 5.93091C31.0302 6.08311 31.0534 6.22138 31.0998 6.34574C31.1472 6.46917 31.2168 6.56754 31.3086 6.64085C31.4014 6.71324 31.5165 6.74943 31.6539 6.74943ZM34.1053 7.04455C33.9122 7.04455 33.7429 6.99861 33.5972 6.90673C33.4524 6.81486 33.3392 6.68633 33.2575 6.52114C33.1768 6.35595 33.1364 6.16292 33.1364 5.94205C33.1364 5.71932 33.1768 5.5249 33.2575 5.35878C33.3392 5.19266 33.4524 5.06366 33.5972 4.97179C33.7429 4.87991 33.9122 4.83398 34.1053 4.83398C34.2983 4.83398 34.4672 4.87991 34.612 4.97179C34.7577 5.06366 34.8709 5.19266 34.9516 5.35878C35.0333 5.5249 35.0741 5.71932 35.0741 5.94205C35.0741 6.16292 35.0333 6.35595 34.9516 6.52114C34.8709 6.68633 34.7577 6.81486 34.612 6.90673C34.4672 6.99861 34.2983 7.04455 34.1053 7.04455ZM34.1053 6.74943C34.2519 6.74943 34.3725 6.71185 34.4672 6.63668C34.5618 6.56151 34.6319 6.46267 34.6774 6.34017C34.7229 6.21767 34.7456 6.08496 34.7456 5.94205C34.7456 5.79913 34.7229 5.66596 34.6774 5.54253C34.6319 5.4191 34.5618 5.31934 34.4672 5.24324C34.3725 5.16714 34.2519 5.12909 34.1053 5.12909C33.9586 5.12909 33.838 5.16714 33.7433 5.24324C33.6487 5.31934 33.5786 5.4191 33.5331 5.54253C33.4876 5.66596 33.4649 5.79913 33.4649 5.94205C33.4649 6.08496 33.4876 6.21767 33.5331 6.34017C33.5786 6.46267 33.6487 6.56151 33.7433 6.63668C33.838 6.71185 33.9586 6.74943 34.1053 6.74943ZM36.7226 7V4.14909H37.0679V6.69375H38.3931V7H36.7226ZM39.7517 7.04455C39.5587 7.04455 39.3893 6.99861 39.2436 6.90673C39.0989 6.81486 38.9856 6.68633 38.904 6.52114C38.8232 6.35595 38.7829 6.16292 38.7829 5.94205C38.7829 5.71932 38.8232 5.5249 38.904 5.35878C38.9856 5.19266 39.0989 5.06366 39.2436 4.97179C39.3893 4.87991 39.5587 4.83398 39.7517 4.83398C39.9448 4.83398 40.1137 4.87991 40.2584 4.97179C40.4041 5.06366 40.5174 5.19266 40.5981 5.35878C40.6798 5.5249 40.7206 5.71932 40.7206 5.94205C40.7206 6.16292 40.6798 6.35595 40.5981 6.52114C40.5174 6.68633 40.4041 6.81486 40.2584 6.90673C40.1137 6.99861 39.9448 7.04455 39.7517 7.04455ZM39.7517 6.74943C39.8984 6.74943 40.019 6.71185 40.1137 6.63668C40.2083 6.56151 40.2784 6.46267 40.3239 6.34017C40.3693 6.21767 40.3921 6.08496 40.3921 5.94205C40.3921 5.79913 40.3693 5.66596 40.3239 5.54253C40.2784 5.4191 40.2083 5.31934 40.1137 5.24324C40.019 5.16714 39.8984 5.12909 39.7517 5.12909C39.6051 5.12909 39.4845 5.16714 39.3898 5.24324C39.2951 5.31934 39.2251 5.4191 39.1796 5.54253C39.1341 5.66596 39.1114 5.79913 39.1114 5.94205C39.1114 6.08496 39.1341 6.21767 39.1796 6.34017C39.2251 6.46267 39.2951 6.56151 39.3898 6.63668C39.4845 6.71185 39.6051 6.74943 39.7517 6.74943ZM39.6014 4.57227L39.9411 3.92636H40.3253L39.8909 4.57227H39.6014ZM41.2221 7.80182V4.86182H41.5395V5.20148H41.5785C41.6026 5.16436 41.636 5.11703 41.6787 5.05949C41.7223 5.00102 41.7845 4.94905 41.8652 4.90358C41.9469 4.85718 42.0573 4.83398 42.1965 4.83398C42.3766 4.83398 42.5353 4.87899 42.6726 4.96901C42.8099 5.05902 42.9171 5.18663 42.9942 5.35182C43.0712 5.51701 43.1097 5.71189 43.1097 5.93648C43.1097 6.16292 43.0712 6.3592 42.9942 6.52531C42.9171 6.6905 42.8104 6.81857 42.674 6.90952C42.5376 6.99954 42.3803 7.04455 42.2021 7.04455C42.0647 7.04455 41.9548 7.02181 41.8722 6.97634C41.7896 6.92993 41.726 6.8775 41.6815 6.81903C41.6369 6.75964 41.6026 6.71045 41.5785 6.67148H41.5506V7.80182H41.2221ZM41.545 5.93091C41.545 6.09239 41.5687 6.23484 41.616 6.35827C41.6634 6.48077 41.7325 6.57682 41.8235 6.64642C41.9144 6.71509 42.0258 6.74943 42.1575 6.74943C42.2949 6.74943 42.4095 6.71324 42.5014 6.64085C42.5942 6.56754 42.6638 6.46917 42.7102 6.34574C42.7575 6.22138 42.7812 6.08311 42.7812 5.93091C42.7812 5.78057 42.758 5.64508 42.7116 5.52443C42.6661 5.40286 42.597 5.30681 42.5042 5.23628C42.4123 5.16482 42.2967 5.12909 42.1575 5.12909C42.0239 5.12909 41.9116 5.16296 41.8207 5.23071C41.7297 5.29753 41.661 5.39126 41.6146 5.5119C41.5682 5.63162 41.545 5.77129 41.545 5.93091ZM44.5073 7.04455C44.3013 7.04455 44.1236 6.99907 43.9742 6.90813C43.8257 6.81625 43.7111 6.68818 43.6303 6.52392C43.5505 6.35873 43.5106 6.16663 43.5106 5.94761C43.5106 5.7286 43.5505 5.53557 43.6303 5.36852C43.7111 5.20055 43.8234 5.0697 43.9672 4.97597C44.112 4.88131 44.2809 4.83398 44.4739 4.83398C44.5853 4.83398 44.6952 4.85254 44.8038 4.88966C44.9124 4.92678 45.0112 4.9871 45.1003 5.07063C45.1894 5.15322 45.2604 5.26273 45.3133 5.39915C45.3662 5.53557 45.3927 5.70354 45.3927 5.90307V6.04227H43.7445V5.7583H45.0586C45.0586 5.63765 45.0344 5.53 44.9862 5.43534C44.9388 5.34068 44.8711 5.26598 44.7829 5.21122C44.6957 5.15647 44.5927 5.12909 44.4739 5.12909C44.3431 5.12909 44.2298 5.16157 44.1342 5.22653C44.0396 5.29057 43.9667 5.37409 43.9157 5.4771C43.8647 5.58011 43.8391 5.69055 43.8391 5.80841V5.99773C43.8391 6.1592 43.867 6.29609 43.9227 6.40838C43.9793 6.51974 44.0577 6.60466 44.1579 6.66313C44.2581 6.72066 44.3746 6.74943 44.5073 6.74943C44.5936 6.74943 44.6716 6.73737 44.7412 6.71324C44.8117 6.68818 44.8725 6.65106 44.9235 6.60188C44.9746 6.55176 45.014 6.48958 45.0419 6.41534L45.3592 6.50443C45.3258 6.61208 45.2697 6.70674 45.1908 6.78841C45.1119 6.86915 45.0145 6.93225 44.8985 6.97773C44.7825 7.02227 44.6521 7.04455 44.5073 7.04455ZM45.8311 7V6.74943L47.045 5.19034V5.16807H45.8701V4.86182H47.4682V5.12352L46.2877 6.67148V6.69375H47.5072V7H45.8311Z" fill="white"/>
</svg>
